<?xml version="1.0" encoding="UTF-8" standalone="no"?>
<!DOCTYPE svg PUBLIC "-//W3C//DTD SVG 1.1//EN"
 "http://www.w3.org/Graphics/SVG/1.1/DTD/svg11.dtd">
<!-- Generated by graphviz version 2.42.4 (0)
 -->
<!-- Title: ER Pages: 1 -->
<svg width="557pt" height="534pt"
 viewBox="0.00 0.00 557.00 533.50" xmlns="http://www.w3.org/2000/svg" xmlns:xlink="http://www.w3.org/1999/xlink">
<g id="graph0" class="graph" transform="scale(1 1) rotate(0) translate(4 529.5)">
<title>ER</title>
<polygon fill="white" stroke="transparent" points="-4,4 -4,-529.5 553,-529.5 553,4 -4,4"/>
<!-- source_dataset -->
<g id="node1" class="node">
<title>source_dataset</title>
<polygon fill="none" stroke="black" points="0,-448.5 0,-522.5 196,-522.5 196,-448.5 0,-448.5"/>
<text text-anchor="middle" x="41.5" y="-483" font-family="Arial" font-size="10.00">source_dataset</text>
<polyline fill="none" stroke="black" points="83,-448.5 83,-522.5 "/>
<text text-anchor="start" x="91" y="-510.5" font-family="Arial" font-size="10.00">PK source_dataset_id</text>
<text text-anchor="start" x="91" y="-499.5" font-family="Arial" font-size="10.00">dataset_title</text>
<text text-anchor="start" x="91" y="-488.5" font-family="Arial" font-size="10.00">original_creators</text>
<text text-anchor="start" x="91" y="-477.5" font-family="Arial" font-size="10.00">publisher</text>
<text text-anchor="start" x="91" y="-466.5" font-family="Arial" font-size="10.00">doi</text>
<text text-anchor="start" x="91" y="-455.5" font-family="Arial" font-size="10.00">license_name</text>
</g>
<!-- forward -->
<g id="node7" class="node">
<title>forward</title>
<polygon fill="none" stroke="black" points="290,-335 290,-464 540,-464 540,-335 290,-335"/>
<text text-anchor="middle" x="352.5" y="-397" font-family="Arial" font-size="10.00">forward_player_valuation</text>
<polyline fill="none" stroke="black" points="415,-335 415,-464 "/>
<text text-anchor="start" x="423" y="-452" font-family="Arial" font-size="10.00">PK forward_valuation_id</text>
<text text-anchor="start" x="423" y="-441" font-family="Arial" font-size="10.00">FK source_dataset_id</text>
<text text-anchor="start" x="423" y="-430" font-family="Arial" font-size="10.00">FK player_id</text>
<text text-anchor="start" x="423" y="-419" font-family="Arial" font-size="10.00">FK club_id</text>
<text text-anchor="start" x="423" y="-408" font-family="Arial" font-size="10.00">market_value_mln</text>
<text text-anchor="start" x="423" y="-397" font-family="Arial" font-size="10.00">value_rank</text>
<text text-anchor="start" x="423" y="-386" font-family="Arial" font-size="10.00">player_age_years</text>
<text text-anchor="start" x="423" y="-375" font-family="Arial" font-size="10.00">matches/goals/assists</text>
<text text-anchor="start" x="423" y="-364" font-family="Arial" font-size="10.00">minutes_per_goal</text>
<text text-anchor="start" x="423" y="-353" font-family="Arial" font-size="10.00">minutes_played</text>
<text text-anchor="start" x="423" y="-342" font-family="Arial" font-size="10.00">instagram_followers_mln</text>
</g>
<!-- source_dataset&#45;&gt;forward -->
<g id="edge1" class="edge">
<title>source_dataset&#45;&gt;forward</title>
<path fill="none" stroke="black" d="M196.13,-459C196.13,-459 279.87,-459 279.87,-459"/>
<polygon fill="black" stroke="black" points="279.87,-462.5 289.87,-459 279.87,-455.5 279.87,-462.5"/>
<text text-anchor="middle" x="238.5" y="-518.3" font-family="Arial" font-size="9.00">1:n</text>
</g>
<!-- transfer -->
<g id="node8" class="node">
<title>transfer</title>
<polygon fill="none" stroke="black" points="281,-124.5 281,-264.5 549,-264.5 549,-124.5 281,-124.5"/>
<text text-anchor="middle" x="348" y="-192" font-family="Arial" font-size="10.00">transfer_value_observation</text>
<polyline fill="none" stroke="black" points="415,-124.5 415,-264.5 "/>
<text text-anchor="start" x="423" y="-252.5" font-family="Arial" font-size="10.00">PK transfer_observation_id</text>
<text text-anchor="start" x="423" y="-241.5" font-family="Arial" font-size="10.00">FK source_dataset_id</text>
<text text-anchor="start" x="423" y="-230.5" font-family="Arial" font-size="10.00">FK player_id</text>
<text text-anchor="start" x="423" y="-219.5" font-family="Arial" font-size="10.00">FK position_id</text>
<text text-anchor="start" x="423" y="-208.5" font-family="Arial" font-size="10.00">FK nationality_id</text>
<text text-anchor="start" x="423" y="-197.5" font-family="Arial" font-size="10.00">FK club_id</text>
<text text-anchor="start" x="423" y="-186.5" font-family="Arial" font-size="10.00">FK season_year</text>
<text text-anchor="start" x="423" y="-175.5" font-family="Arial" font-size="10.00">age_then/age_now</text>
<text text-anchor="start" x="423" y="-164.5" font-family="Arial" font-size="10.00">performance flags</text>
<text text-anchor="start" x="423" y="-153.5" font-family="Arial" font-size="10.00">total_games/assists/goals</text>
<text text-anchor="start" x="423" y="-142.5" font-family="Arial" font-size="10.00">height_cm</text>
<text text-anchor="start" x="423" y="-131.5" font-family="Arial" font-size="10.00">start/end/delta value</text>
</g>
<!-- source_dataset&#45;&gt;transfer -->
<g id="edge4" class="edge">
<title>source_dataset&#45;&gt;transfer</title>
<path fill="none" stroke="black" d="M196.13,-453.5C241.71,-453.5 286,-453.5 286,-453.5 286,-453.5 286,-274.59 286,-274.59"/>
<polygon fill="black" stroke="black" points="289.5,-274.59 286,-264.59 282.5,-274.59 289.5,-274.59"/>
<text text-anchor="middle" x="238.5" y="-460.3" font-family="Arial" font-size="9.00">1:n</text>
</g>
<!-- player -->
<g id="node2" class="node">
<title>player</title>
<polygon fill="none" stroke="black" points="31.5,-351.5 31.5,-387.5 164.5,-387.5 164.5,-351.5 31.5,-351.5"/>
<text text-anchor="middle" x="53" y="-367" font-family="Arial" font-size="10.00">player</text>
<polyline fill="none" stroke="black" points="74.5,-351.5 74.5,-387.5 "/>
<text text-anchor="start" x="82.5" y="-372.5" font-family="Arial" font-size="10.00">PK player_id</text>
<text text-anchor="start" x="82.5" y="-361.5" font-family="Arial" font-size="10.00">UQ player_name</text>
</g>
<!-- player&#45;&gt;forward -->
<g id="edge2" class="edge">
<title>player&#45;&gt;forward</title>
<path fill="none" stroke="black" d="M164.84,-369.5C164.84,-369.5 279.68,-369.5 279.68,-369.5"/>
<polygon fill="black" stroke="black" points="279.68,-373 289.68,-369.5 279.68,-366 279.68,-373"/>
<text text-anchor="middle" x="238.5" y="-402.3" font-family="Arial" font-size="9.00">1:n</text>
</g>
<!-- player&#45;&gt;transfer -->
<g id="edge5" class="edge">
<title>player&#45;&gt;transfer</title>
<path fill="none" stroke="black" d="M161,-351.09C161,-320.14 161,-261 161,-261 161,-261 270.93,-261 270.93,-261"/>
<polygon fill="black" stroke="black" points="270.93,-264.5 280.93,-261 270.93,-257.5 270.93,-264.5"/>
<text text-anchor="middle" x="238.5" y="-344.3" font-family="Arial" font-size="9.00">1:n</text>
</g>
<!-- club -->
<g id="node3" class="node">
<title>club</title>
<polygon fill="none" stroke="black" points="39.5,-253.5 39.5,-289.5 156.5,-289.5 156.5,-253.5 39.5,-253.5"/>
<text text-anchor="middle" x="57" y="-269" font-family="Arial" font-size="10.00">club</text>
<polyline fill="none" stroke="black" points="74.5,-253.5 74.5,-289.5 "/>
<text text-anchor="start" x="82.5" y="-274.5" font-family="Arial" font-size="10.00">PK club_id</text>
<text text-anchor="start" x="82.5" y="-263.5" font-family="Arial" font-size="10.00">UQ club_name</text>
</g>
<!-- club&#45;&gt;forward -->
<g id="edge3" class="edge">
<title>club&#45;&gt;forward</title>
<path fill="none" stroke="black" d="M98,-289.85C98,-310.96 98,-342.75 98,-342.75 98,-342.75 279.71,-342.75 279.71,-342.75"/>
<polygon fill="black" stroke="black" points="279.71,-346.25 289.71,-342.75 279.71,-339.25 279.71,-346.25"/>
<text text-anchor="middle" x="238.5" y="-286.3" font-family="Arial" font-size="9.00">1:n</text>
</g>
<!-- club&#45;&gt;transfer -->
<g id="edge6" class="edge">
<title>club&#45;&gt;transfer</title>
<path fill="none" stroke="black" d="M156.51,-257C156.51,-257 270.89,-257 270.89,-257"/>
<polygon fill="black" stroke="black" points="270.89,-260.5 280.89,-257 270.89,-253.5 270.89,-260.5"/>
<text text-anchor="middle" x="238.5" y="-228.3" font-family="Arial" font-size="9.00">1:n</text>
</g>
<!-- position -->
<g id="node4" class="node">
<title>position</title>
<polygon fill="none" stroke="black" points="24,-160.5 24,-196.5 172,-196.5 172,-160.5 24,-160.5"/>
<text text-anchor="middle" x="49" y="-176" font-family="Arial" font-size="10.00">position</text>
<polyline fill="none" stroke="black" points="74,-160.5 74,-196.5 "/>
<text text-anchor="start" x="82" y="-181.5" font-family="Arial" font-size="10.00">PK position_id</text>
<text text-anchor="start" x="82" y="-170.5" font-family="Arial" font-size="10.00">UQ position_name</text>
</g>
<!-- position&#45;&gt;transfer -->
<g id="edge7" class="edge">
<title>position&#45;&gt;transfer</title>
<path fill="none" stroke="black" d="M172.32,-178.5C172.32,-178.5 270.88,-178.5 270.88,-178.5"/>
<polygon fill="black" stroke="black" points="270.88,-182 280.88,-178.5 270.88,-175 270.88,-182"/>
<text text-anchor="middle" x="238.5" y="-170.3" font-family="Arial" font-size="9.00">1:n</text>
</g>
<!-- nationality -->
<g id="node5" class="node">
<title>nationality</title>
<polygon fill="none" stroke="black" points="13.5,-80.5 13.5,-116.5 182.5,-116.5 182.5,-80.5 13.5,-80.5"/>
<text text-anchor="middle" x="44" y="-96" font-family="Arial" font-size="10.00">nationality</text>
<polyline fill="none" stroke="black" points="74.5,-80.5 74.5,-116.5 "/>
<text text-anchor="start" x="82.5" y="-101.5" font-family="Arial" font-size="10.00">PK nationality_id</text>
<text text-anchor="start" x="82.5" y="-90.5" font-family="Arial" font-size="10.00">UQ nationality_name</text>
</g>
<!-- nationality&#45;&gt;transfer -->
<g id="edge8" class="edge">
<title>nationality&#45;&gt;transfer</title>
<path fill="none" stroke="black" d="M178,-116.7C178,-128.62 178,-142 178,-142 178,-142 270.92,-142 270.92,-142"/>
<polygon fill="black" stroke="black" points="270.92,-145.5 280.92,-142 270.92,-138.5 270.92,-145.5"/>
<text text-anchor="middle" x="238.5" y="-101.3" font-family="Arial" font-size="9.00">1:n</text>
</g>
<!-- season -->
<g id="node6" class="node">
<title>season</title>
<polygon fill="none" stroke="black" points="29.5,-0.5 29.5,-36.5 166.5,-36.5 166.5,-0.5 29.5,-0.5"/>
<text text-anchor="middle" x="53.5" y="-16" font-family="Arial" font-size="10.00">season</text>
<polyline fill="none" stroke="black" points="77.5,-0.5 77.5,-36.5 "/>
<text text-anchor="start" x="85.5" y="-21.5" font-family="Arial" font-size="10.00">PK season_year</text>
<text text-anchor="start" x="85.5" y="-10.5" font-family="Arial" font-size="10.00">notes</text>
</g>
<!-- season&#45;&gt;transfer -->
<g id="edge9" class="edge">
<title>season&#45;&gt;transfer</title>
<path fill="none" stroke="black" d="M166.78,-18.5C260.02,-18.5 415,-18.5 415,-18.5 415,-18.5 415,-114.43 415,-114.43"/>
<polygon fill="black" stroke="black" points="411.5,-114.43 415,-124.43 418.5,-114.43 411.5,-114.43"/>
<text text-anchor="middle" x="238.5" y="-21.3" font-family="Arial" font-size="9.00">1:n</text>
</g>
</g>
</svg>
